# This file uses centimeters as units for non-parametric coordinates.

mtllib cadre tableauu.mtl
g default
v 1.536826 0.483736 0.407733
v 1.536826 0.483736 0.180907
v 1.540319 3.174660 0.407733
v 1.540319 3.174660 0.180907
v -0.419556 3.174660 0.407733
v -0.419556 3.174660 0.180907
v -0.423049 0.483736 0.407733
v -0.423049 0.483736 0.180907
v 1.364231 3.174660 0.407733
v 1.360738 0.483736 0.407733
v 1.360738 0.483736 0.180907
v 1.364231 3.174660 0.180907
v -0.257650 0.483736 0.407733
v -0.254157 3.174660 0.407733
v -0.254157 3.174660 0.180907
v -0.257650 0.483736 0.180907
v 1.536826 2.975206 0.407733
v 1.360738 2.975207 0.407733
v -0.257650 2.975206 0.407733
v -0.423049 2.975207 0.407733
v -0.423049 2.975207 0.180907
v -0.249612 3.011004 0.180857
v 1.368776 3.011003 0.180857
v 1.536826 2.975206 0.180907
v 1.536826 0.635048 0.407733
v 1.360738 0.635049 0.407733
v -0.257650 0.635048 0.407733
v -0.423049 0.635049 0.407733
v -0.423049 0.635049 0.180907
v -0.257650 0.635049 0.180907
v 1.360738 0.635048 0.180907
v 1.536826 0.635048 0.180907
v -0.249612 3.011004 0.383917
v 1.368776 3.011003 0.383917
v 1.360738 0.635048 0.383967
v -0.257650 0.635049 0.383967
vt 1.005035 0.017342
vt 1.005035 0.017342
vt 1.005035 0.066830
vt 1.005035 0.066830
vt 1.005035 1.005616
vt 1.005035 1.005616
vt 0.914841 1.005616
vt 0.914841 1.005616
vt 0.001174 0.066830
vt 0.001174 0.066830
vt 0.001174 0.017342
vt 0.001174 0.017342
vt 0.914841 0.017342
vt 0.914841 0.017342
vt 0.914841 0.066830
vt 0.914841 0.066830
vt 0.085892 0.017342
vt 0.085892 0.066830
vt 0.085892 0.017342
vt 0.085892 0.066830
vt 0.085892 1.005616
vt 0.085892 1.005616
vt 0.001174 1.005616
vt 0.001174 1.005616
vt 0.914841 0.940384
vt 1.005035 0.940384
vt 0.085892 0.940384
vt 0.001174 0.940384
vt 0.001174 0.940384
vt 0.085892 0.940384
vt 0.914841 0.940384
vt 1.005035 0.940384
vt 0.085134 0.163031
vt 0.083582 0.834553
vt 0.177596 0.008116
vt 0.803583 -0.004589
vt -0.082958 0.022663
vt -0.000345 0.023051
vt -0.000521 0.069536
vt -0.083430 0.069174
vt -0.091187 0.941630
vt -0.003412 0.941532
vt -0.003674 1.010795
vt -0.091891 1.010937
vt -0.003644 1.106047
vt -0.003647 1.004191
vt 0.086547 1.004189
vt 0.086549 1.106045
vt 0.915498 1.106030
vt 0.915496 1.004174
vt 1.000215 1.004173
vt 1.000217 1.106029
vt 1.091316 0.068618
vt 1.006672 0.068618
vt 1.006672 0.019116
vt 1.091316 0.019116
vt 1.091291 1.007390
vt 1.006697 1.007390
vt 1.006672 0.942398
vt 1.091316 0.942398
vt 0.005467 1.009274
vt 0.003091 0.009274
vt 0.088867 0.010170
vt 0.092664 1.008745
vt 0.968405 0.030912
vt 0.990283 1.030912
vt 0.930808 1.023126
vt 0.911909 0.051694
vt 0.803856 0.071092
vt 0.182010 0.083629
vt -0.000183 0.833034
vt 0.001308 0.164147
vt 0.089846 0.000000
vt 0.089846 0.115735
vt 0.000000 0.115735
vt 0.000000 0.000000
vt 1.000000 0.000000
vt 1.000000 0.115735
vt 0.915607 0.115735
vt 0.915607 0.000000
vn 1.000000 0.000000 0.000000
vn 1.000000 0.000000 0.000000
vn 1.000000 0.000000 0.000000
vn 1.000000 0.000000 0.000000
vn 0.000000 1.000000 0.000000
vn 0.000000 1.000000 0.000000
vn 0.000000 1.000000 0.000000
vn 0.000000 1.000000 0.000000
vn -1.000000 0.000000 -0.000000
vn -1.000000 0.000000 -0.000000
vn -1.000000 0.000000 -0.000000
vn -1.000000 0.000000 -0.000000
vn 0.000000 -1.000000 0.000000
vn 0.000000 -1.000000 0.000000
vn 0.000000 -1.000000 0.000000
vn 0.000000 -1.000000 0.000000
vn 0.000000 0.000000 -1.000000
vn 0.000000 0.000000 -1.000000
vn 0.000086 -0.000006 -1.000000
vn 0.000135 -0.000010 -1.000000
vn 0.000000 0.000000 1.000000
vn 0.000000 -0.000000 1.000000
vn 0.000000 0.000000 1.000000
vn 0.000000 0.000000 1.000000
vn 0.000000 0.000000 1.000000
vn 0.000000 0.000000 1.000000
vn 0.000000 -0.000000 1.000000
vn 0.000000 0.000000 1.000000
vn 0.000000 -1.000000 0.000000
vn 0.000000 -1.000000 0.000000
vn 0.000000 -1.000000 0.000000
vn 0.000000 -1.000000 0.000000
vn -0.000137 -0.000010 -1.000000
vn -0.000087 -0.000006 -1.000000
vn -0.000000 0.000000 -1.000000
vn -0.000000 0.000000 -1.000000
vn 0.000000 1.000000 0.000000
vn 0.000000 1.000000 0.000000
vn 0.000000 1.000000 0.000000
vn 0.000000 1.000000 0.000000
vn 0.000000 0.000000 1.000000
vn 0.000000 -0.000000 1.000000
vn 0.000000 0.000000 1.000000
vn 0.000000 0.000000 1.000000
vn 0.000000 -0.000000 1.000000
vn 0.000000 -0.000000 1.000000
vn 0.000000 -0.000000 1.000000
vn 0.000000 -0.000000 1.000000
vn -0.999847 0.017509 -0.000000
vn -0.999847 0.017509 -0.000000
vn -0.999999 0.001375 -0.000000
vn -0.999999 0.001375 -0.000000
vn -0.000017 0.000286 -1.000000
vn -0.000086 0.000128 -1.000000
vn -0.000147 -0.000002 -1.000000
vn -0.000161 0.000137 -1.000000
vn 0.000016 0.000287 -1.000000
vn 0.000087 0.000124 -1.000000
vn 0.000144 -0.000002 -1.000000
vn 0.000159 0.000138 -1.000000
vn 0.999999 -0.001375 0.000000
vn 0.999999 -0.001375 0.000000
vn 0.999847 -0.017510 0.000000
vn 0.999847 -0.017510 0.000000
vn -0.000001 -1.000000 0.000000
vn -0.000001 -1.000000 0.000000
vn -0.000001 -1.000000 0.000000
vn -0.000001 -1.000000 0.000000
vn -0.999994 0.003383 -0.000000
vn -0.999994 0.003383 -0.000000
vn -0.999994 0.003383 -0.000000
vn -0.999994 0.003383 -0.000000
vn 0.000001 1.000000 0.000000
vn 0.000001 1.000000 0.000000
vn 0.000001 1.000000 0.000000
vn 0.000001 1.000000 0.000000
vn 0.999994 -0.003383 0.000000
vn 0.999994 -0.003383 0.000000
vn 0.999994 -0.003383 0.000000
vn 0.999994 -0.003383 0.000000
s 1
g pCube2
usemtl blinn2SG
f 1/37/1 2/38/2 32/39/3 25/40/4
s 2
f 3/45/5 4/46/6 12/47/7 9/48/8
s 3
f 28/53/9 29/54/10 8/55/11 7/56/12
s 4
f 10/73/13 11/74/14 2/75/15 1/76/16
s 5
f 2/2/17 11/14/18 31/15/19 32/3/20
s 6
f 25/4/21 26/16/22 10/13/23 1/1/24
f 7/12/25 13/17/26 27/18/27 28/9/28
s 4
f 7/77/29 8/78/30 16/79/31 13/80/32
s 5
f 29/10/33 30/20/34 16/19/35 8/11/36
s 2
f 14/49/37 15/50/38 6/51/39 5/52/40
s 6
f 26/16/22 27/18/27 13/17/26 10/13/23
s 2
f 9/48/8 12/47/7 15/50/38 14/49/37
s 5
f 30/20/34 31/15/19 11/14/18 16/19/35
s 4
f 13/80/32 16/79/31 11/74/14 10/73/13
s 6
f 9/8/41 18/25/42 17/26/43 3/5/44
f 14/21/45 19/27/46 18/25/42 9/8/41
f 20/28/47 19/27/46 14/21/45 5/24/48
s 3
f 5/57/49 6/58/50 21/59/51 20/60/52
s 5
f 15/22/53 22/30/54 21/29/55 6/23/56
f 12/7/57 23/31/58 22/30/54 15/22/53
f 24/32/59 23/31/58 12/7/57 4/6/60
s 1
f 17/41/61 24/42/62 4/43/63 3/44/64
s 6
f 17/26/43 18/25/42 26/16/22 25/4/21
f 18/25/42 19/27/46 27/18/27 26/16/22
f 28/9/28 27/18/27 19/27/46 20/28/47
s 3
f 20/60/52 21/59/51 29/54/10 28/53/9
s 5
f 21/29/55 22/30/54 30/20/34 29/10/33
f 32/3/20 31/15/19 23/31/58 24/32/59
s 1
f 25/40/4 32/39/3 24/42/62 17/41/61
s off
f 22/33/65 23/34/66 34/71/67 33/72/68
f 23/61/69 31/62/70 35/63/71 34/64/72
f 31/35/73 30/36/74 36/69/75 35/70/76
f 30/65/77 22/66/78 33/67/79 36/68/80
g default
v -0.257650 2.975207 0.383967
v 1.360738 2.975206 0.383967
v 1.360738 0.635048 0.383967
v -0.257650 0.635049 0.383967
vt 0.000198 0.006071
vt 0.992065 -0.002436
vt 0.992065 0.995494
vt 0.000198 1.012505
vn 0.000000 0.000000 -1.000000
vn 0.000000 0.000000 -1.000000
vn 0.000000 0.000000 -1.000000
vn 0.000000 0.000000 -1.000000
s off
g pCube1
usemtl blinn1SG
f 37/84/81 38/83/82 39/82/83 40/81/84
